# xmcd
#
# Track frame offsets:
# 150
# 20616
# 35841
# 54669
# 73145
# 86494
# 108102
# 130625
# 150057
# 168979
# 190634
# 207870
# 230991
# 252212
#
# Disc length: 3624 seconds
#
# Revision: 4
# Processed by: cddbd v1.4PL0 Copyright (c) Steve Scherf et al.
# Submitted via: Axialis_AX_CDPlayer 2.6
#
DISCID=b40e260e
DTITLE=Jewel - This Way
DYEAR=1900
DGENRE=
TTITLE0=Standing Still
TTITLE1=Jesus Loves You
TTITLE2=Everybody Needs Someone Sometime
TTITLE3=Break Me
TTITLE4=Do You Want to Play?
TTITLE5=Till We Run Out of Road
TTITLE6=Serve the Ego
TTITLE7=This Way
TTITLE8=Cleveland
TTITLE9=I Won't Walk Away
TTITLE10=Love Me, Just Leave Me Alone
TTITLE11=The New Wild West
TTITLE12=Grey Matter (Live) [CD bonus track)
TTITLE13=Sometimes It Be That Way (Live) [CD bonus track)
EXTD=LABEL =Atlantic Recording Corporation\nID =83519-2\nUPC =07567-83519
EXTD=21\nCOPYRIGHT =2001
EXTT0=
EXTT1=
EXTT2=
EXTT3=
EXTT4=
EXTT5=
EXTT6=
EXTT7=
EXTT8=
EXTT9=
EXTT10=
EXTT11=
EXTT12=
EXTT13=
PLAYORDER=
